<svg version="1.1" id="Layer_1" xmlns="http://www.w3.org/2000/svg" xmlns:xlink="http://www.w3.org/1999/xlink" x="0px" y="0px"
	 width="100%" viewBox="0 0 225 225" enable-background="new 0 0 225 225" xml:space="preserve">
<path fill="#FF6729" opacity="1.000000" stroke="none" 
	d="
M225.000000,226.000000 
	C150.406296,226.000000 75.812576,226.000000 1.000000,226.000000 
	C1.000000,151.645920 1.000000,77.291618 1.468657,2.467826 
	C73.716988,1.997962 145.496658,1.996623 217.276337,1.998605 
	C224.991226,1.998819 225.001068,2.007780 225.001251,9.661591 
	C225.002899,81.774391 225.000916,153.887192 225.000000,226.000000 
M56.921436,146.750275 
	C57.847908,147.314407 58.774384,147.878540 59.898586,148.563065 
	C72.477066,130.550125 84.820457,112.873825 97.354156,94.925003 
	C89.275116,89.282471 81.539810,83.880005 73.476120,78.248192 
	C60.867226,96.294937 48.440960,114.080299 35.902981,132.025558 
	C42.992977,136.978226 49.664280,141.638428 56.921436,146.750275 
M188.894653,93.443062 
	C181.713531,88.458649 174.532410,83.474228 167.090591,78.308876 
	C154.469788,96.382423 142.132095,114.050552 129.550064,132.068573 
	C137.673874,137.734085 145.469604,143.170792 153.441864,148.730606 
	C165.755859,131.112900 177.676239,114.097755 189.492416,97.010582 
	C189.971420,96.317894 189.467133,94.945229 188.894653,93.443062 
M134.313934,108.840500 
	C137.432449,104.369560 140.550980,99.898621 143.931732,95.051712 
	C135.958710,89.480270 128.144104,84.019539 120.061401,78.371460 
	C107.406555,96.489784 95.065758,114.158478 82.490585,132.162720 
	C90.641342,137.838715 98.444199,143.272446 106.397697,148.811081 
	C115.824654,135.321411 124.868546,122.379890 134.313934,108.840500 
z"/>
<path fill="#FF7C4E" opacity="1.000000" stroke="none" 
	d="
M225.500000,226.000000 
	C225.000916,153.887192 225.002899,81.774391 225.001251,9.661591 
	C225.001068,2.007780 224.991226,1.998819 217.276337,1.998605 
	C145.496658,1.996623 73.716988,1.997962 1.468657,1.999169 
	C2.500000,1.666667 3.999812,1.042680 5.500027,1.041707 
	C78.999992,0.994067 152.500000,1.000000 226.000000,1.000000 
	C226.000000,76.000000 226.000000,151.000000 225.500000,226.000000 
z"/>
<path fill="#FFFDFD" opacity="1.000000" stroke="none" 
	d="
M56.628510,146.524445 
	C49.664280,141.638428 42.992977,136.978226 35.902981,132.025558 
	C48.440960,114.080299 60.867226,96.294937 73.476120,78.248192 
	C81.539810,83.880005 89.275116,89.282471 97.354156,94.925003 
	C84.820457,112.873825 72.477066,130.550125 59.898586,148.563065 
	C58.774384,147.878540 57.847908,147.314407 56.628510,146.524445 
z"/>
<path fill="#FFFDFD" opacity="1.000000" stroke="none" 
	d="
M189.157806,93.666222 
	C189.467133,94.945229 189.971420,96.317894 189.492416,97.010582 
	C177.676239,114.097755 165.755859,131.112900 153.441864,148.730606 
	C145.469604,143.170792 137.673874,137.734085 129.550064,132.068573 
	C142.132095,114.050552 154.469788,96.382423 167.090591,78.308876 
	C174.532410,83.474228 181.713531,88.458649 189.157806,93.666222 
z"/>
<path fill="#FFFDFD" opacity="1.000000" stroke="none" 
	d="
M134.113190,109.139435 
	C124.868546,122.379890 115.824654,135.321411 106.397697,148.811081 
	C98.444199,143.272446 90.641342,137.838715 82.490585,132.162720 
	C95.065758,114.158478 107.406555,96.489784 120.061401,78.371460 
	C128.144104,84.019539 135.958710,89.480270 143.931732,95.051712 
	C140.550980,99.898621 137.432449,104.369560 134.113190,109.139435 
z"/>
</svg>